<svg width="60" height="60" fill="none" xmlns="http://www.w3.org/2000/svg"><path d="M24 21.7L38.94 30 24 38.3V21.7z" stroke="#319559" stroke-width="2"/><path fill-rule="evenodd" clip-rule="evenodd" d="M39.969 9.267l6.322 10.95c.118.197.233.396.345.597L49.63 26l2.082-3.607A23.074 23.074 0 0039.97 9.267zm-5.7-1.871A23.127 23.127 0 0030 7c-4.81 0-9.274 1.476-12.965 4H36.35l-2.08-3.604zm18.667 20.878l-6.304 10.92c-.11.196-.221.39-.337.582L43.279 45h4.157A22.91 22.91 0 0053 30c0-.58-.022-1.157-.064-1.726zM42.966 49H23.65l2.08 3.604c1.384.26 2.811.396 4.27.396 4.81 0 9.274-1.476 12.965-4zM20.03 50.733l-6.315-10.938a19.118 19.118 0 01-.358-.62L10.37 34l-2.082 3.607A23.074 23.074 0 0020.03 50.733zM7.064 31.727l6.295-10.903c.115-.208.233-.414.356-.617L16.72 15h-4.157A22.91 22.91 0 007 30c0 .58.022 1.157.064 1.727z" fill="#7981FB"/></svg>