<svg width="60" height="60" fill="none" xmlns="http://www.w3.org/2000/svg"><path d="M53.266 6.734C47.065 1.233 38.859 0 31.205 0h-2.429c-7.93 0-16.191 1.343-22.042 6.734C1.251 12.934 0 21.16 0 28.813v2.355c0 7.912 1.343 16.247 6.734 22.098C12.972 58.785 21.233 60 28.924 60h2.134c7.948 0 16.32-1.325 22.208-6.734C58.785 47.028 60 38.749 60 31.058v-2.134c0-7.949-1.325-16.32-6.734-22.19z" fill="#FBFCFD"/><path d="M29.997 35.892c-2.738 0-4.965-2.177-4.965-4.853 0-2.677 2.227-4.854 4.965-4.854 2.737 0 4.965 2.177 4.965 4.854 0 2.676-2.228 4.853-4.965 4.853zm-3.385-21.616c0-1.825 1.518-3.309 3.385-3.309 1.866 0 3.385 1.484 3.385 3.31 0 1.824-1.518 3.309-3.385 3.309-1.867 0-3.385-1.485-3.385-3.31zM16.91 26.881c-.454 1.369-1.747 2.289-3.217 2.289-.355 0-.707-.055-1.048-.164-1.775-.564-2.75-2.434-2.173-4.17.455-1.369 1.748-2.288 3.219-2.288.353 0 .705.055 1.046.163.86.273 1.56.858 1.97 1.646.41.788.483 1.684.203 2.524zm20.76 4.158c0-3.76-2.621-6.8-6.318-7.337V19.73c2.572-.513 4.287-2.79 4.287-5.455 0-3.041-2.531-5.515-5.642-5.515s-5.642 2.474-5.642 5.515c0 2.664 2.169 4.942 4.74 5.455v3.97c-2.516.366-4.86 1.85-5.959 3.998l-3.838-1.22a5.37 5.37 0 00-.58-3.123 5.571 5.571 0 00-3.284-2.743 5.736 5.736 0 00-1.743-.272c-2.452 0-4.608 1.533-5.366 3.813-.961 2.893.664 6.01 3.622 6.95.567.18 1.154.272 1.746.272 2.065 0 3.918-1.092 4.904-2.8l3.841 1.221a7.27 7.27 0 00-.114 1.242c0 4.136 3.442 7.501 7.673 7.501 4.23 0 7.673-3.365 7.673-7.501zm11.648-3.679a3.34 3.34 0 01-1.97 1.646 3.463 3.463 0 01-1.047.163c-1.47 0-2.764-.92-3.219-2.288-.576-1.735.4-3.606 2.174-4.17a3.467 3.467 0 011.048-.163c1.47 0 2.763.92 3.218 2.288a3.22 3.22 0 01-.204 2.524zm2.35-3.206c-.758-2.28-2.914-3.813-5.364-3.813a5.76 5.76 0 00-1.745.272c-2.591.823-4.159 3.317-3.863 5.867l-1.582.503.698 2.098 1.585-.503c.986 1.707 2.84 2.798 4.904 2.798a5.78 5.78 0 001.744-.271 5.572 5.572 0 003.285-2.743 5.374 5.374 0 00.339-4.208zm-9.605 23.123a3.41 3.41 0 01-1.985.632 3.423 3.423 0 01-2.742-1.364 3.266 3.266 0 01.748-4.624 3.412 3.412 0 011.986-.632c1.082 0 2.108.51 2.743 1.365a3.266 3.266 0 01-.75 4.623zm-1.993-8.195c-.814 0-1.603.173-2.331.499l-.98-1.318-1.825 1.297.977 1.316a5.43 5.43 0 00-.401 6.965c1.058 1.424 2.765 2.274 4.568 2.274a5.689 5.689 0 003.312-1.053c2.516-1.787 3.076-5.244 1.248-7.705-1.058-1.424-2.766-2.275-4.568-2.275zm-17.412 7.462a3.424 3.424 0 01-2.742 1.366c-.717 0-1.404-.22-1.987-.634a3.265 3.265 0 01-.748-4.622 3.423 3.423 0 012.742-1.364c.717 0 1.404.218 1.986.632a3.266 3.266 0 01.749 4.623zm2.4-6.985l-1.825-1.296-.98 1.318a5.7 5.7 0 00-2.33-.498c-1.803 0-3.51.85-4.568 2.274-1.828 2.46-1.269 5.917 1.248 7.705a5.69 5.69 0 003.313 1.053c1.801 0 3.508-.85 4.567-2.273a5.431 5.431 0 00-.402-6.967l.978-1.316z" fill="url(#paint0_linear)"/><defs><linearGradient id="paint0_linear" x1="44.392" y1="16.45" x2="15.167" y2="47.791" gradientUnits="userSpaceOnUse"><stop stop-color="#00B5CB"/><stop offset="1" stop-color="#2370E1"/></linearGradient></defs></svg>