<svg xmlns="http://www.w3.org/2000/svg" xmlns:xlink="http://www.w3.org/1999/xlink"><defs><linearGradient id="paint0_linear" x1="60" y1="46" x2="32" y2="46" gradientUnits="userSpaceOnUse"><stop stop-color="#FAEE61"/><stop offset="1" stop-color="#FEF694"/></linearGradient><linearGradient id="paint1_linear" x1="60" y1="14" x2="32" y2="14" gradientUnits="userSpaceOnUse"><stop stop-color="#020202"/><stop offset="1" stop-color="#666"/></linearGradient><linearGradient id="paint2_linear" x1="28" y1="46" x2="0" y2="46" gradientUnits="userSpaceOnUse"><stop stop-color="#029965"/><stop offset="1" stop-color="#66C1A2"/></linearGradient><linearGradient id="paint3_linear" x1="28" y1="14" x2="0" y2="14" gradientUnits="userSpaceOnUse"><stop stop-color="#BEF0FE"/><stop offset="1" stop-color="#FFD6D3"/></linearGradient></defs><symbol id="icon-colors"><path fill="#fff" d="M0 0h60v60H0z"/><rect x="32" y="32" width="28" height="28" rx="14" fill="url(#paint0_linear)"/><rect x="32" width="28" height="28" rx="14" fill="url(#paint1_linear)"/><rect y="32" width="28" height="28" rx="14" fill="url(#paint2_linear)"/><rect width="28" height="28" rx="14" fill="url(#paint3_linear)"/></symbol><symbol id="icon-eldorado"><path d="M0 6.563A6.562 6.562 0 016.563 0h21.875A6.562 6.562 0 0135 6.563v21.875A6.562 6.562 0 0128.437 35H6.563A6.562 6.562 0 010 28.437V6.563z" fill="#78BD20"/><path d="M28.353 9.375C28.878 6.5 28.07 4.5 24.761 4.5H14.469l-.968 5.042h8.758c.524 0 .686.291.605.917l-1.13 6h-5.449l.808-4.167L4.5 18.542h9.364l-.808 4.166 8.274-4.083-1.09 5.917c-.16.583-.443.875-1.09.875h-8.677L9.545 30.5h10.332c3.27 0 4.884-2 5.368-4.875l3.108-16.25z" fill="#000"/></symbol><symbol id="icon-menu"><path fill="transparent" d="M0 0h32v32H0z"/><path d="M4 8h24v2H4V8zm0 7h24v2H4v-2zm24 7H4v2h24v-2z" fill="#d70e2a"/></symbol><symbol id="icon-mvideo"><path d="M35.157 18c0 9.455-7.669 17.158-17.156 17.158C8.512 35.158.842 27.488.842 18 .843 8.513 8.513.845 18 .845 27.488.844 35.157 8.546 35.157 18z" fill="#ED1D24"/><path d="M28.347 24.976a1.256 1.256 0 11-1.256-1.257c.727 0 1.256.562 1.256 1.257zm-15.47.694c-1.323-1.39-.298-4.067-.067-6.315-.297.297-3.107 6.876-5.686 6.876h-.132C4.645 26 4.942 22.76 5.67 20.809h3.769c-1.157 3.207.43 1.885 1.52-.132 2.182-4.43 2.215-4.529 4.595-11.206h4.165c-1.223 3.801-2.28 7.206-2.776 11.14 0 .132.066.298.231.232.86-.133 5.52-10.645 5.95-11.372h4.166s-4.43 12.231-3.703 13.388c.364.661.86-.595 1.323-1.09l.66.66c-1.222 1.356-2.61 3.835-4.561 3.835-.166 0-.298-.033-.463-.033a1.69 1.69 0 01-.793-.43c-2.248-1.95 1.818-9.223 1.388-9.686-.132 0-.264.364-.496.86-1.223 2.545-4.066 9.29-6.413 9.29-.397-.034-.959-.166-1.355-.596z" fill="#fff"/></symbol></svg>