<svg width="26" height="26" fill="none" xmlns="http://www.w3.org/2000/svg"><path d="M35.157 18c0 9.455-7.669 17.158-17.156 17.158C8.512 35.158.842 27.488.842 18 .843 8.513 8.513.845 18 .845 27.488.844 35.157 8.546 35.157 18z" fill="#ED1D24"/><path d="M28.347 24.976a1.256 1.256 0 11-1.256-1.257c.727 0 1.256.562 1.256 1.257zm-15.47.694c-1.323-1.39-.298-4.067-.067-6.315-.297.297-3.107 6.876-5.686 6.876h-.132C4.645 26 4.942 22.76 5.67 20.809h3.769c-1.157 3.207.43 1.885 1.52-.132 2.182-4.43 2.215-4.529 4.595-11.206h4.165c-1.223 3.801-2.28 7.206-2.776 11.14 0 .132.066.298.231.232.86-.133 5.52-10.645 5.95-11.372h4.166s-4.43 12.231-3.703 13.388c.364.661.86-.595 1.323-1.09l.66.66c-1.222 1.356-2.61 3.835-4.561 3.835-.166 0-.298-.033-.463-.033a1.69 1.69 0 01-.793-.43c-2.248-1.95 1.818-9.223 1.388-9.686-.132 0-.264.364-.496.86-1.223 2.545-4.066 9.29-6.413 9.29-.397-.034-.959-.166-1.355-.596z" fill="#fff"/></svg>